<?xml version="1.0" standalone="no"?>
<!DOCTYPE svg PUBLIC "-//W3C//DTD SVG 20010904//EN"
 "http://www.w3.org/TR/2001/REC-SVG-20010904/DTD/svg10.dtd">
<svg version="1.0" xmlns="http://www.w3.org/2000/svg"
 width="100.000000pt" height="100.000000pt" viewBox="0 0 100.000000 100.000000"
 preserveAspectRatio="xMidYMid meet">
<metadata>
Created by potrace 1.14, written by Peter Selinger 2001-2017
</metadata>
<g transform="translate(0.000000,100.000000) scale(0.100000,-0.100000)"
fill="#000000" stroke="none">
<path d="M385 966 c-88 -22 -148 -58 -221 -130 -195 -196 -195 -476 0 -672
196 -195 476 -195 672 0 195 196 195 476 0 672 -126 125 -286 171 -451 130z
m-79 -231 l17 -45 181 0 181 0 18 45 c11 25 25 45 33 45 17 0 17 -2 -1 -47 -9
-21 -13 -51 -10 -72 3 -27 3 -30 -3 -11 l-8 25 -211 3 -211 2 -7 -46 c-3 -25
-9 -43 -12 -41 -3 3 0 29 6 57 9 42 8 56 -5 81 -15 31 -12 65 5 55 5 -4 17
-26 27 -51z m410 -122 c10 -44 10 -53 -2 -53 -8 0 -14 -5 -14 -12 0 -6 -3 -9
-6 -6 -3 3 0 15 7 26 7 12 9 30 4 48 -7 29 -7 29 -31 -25 -13 -29 -24 -55 -24
-57 0 -2 15 -4 33 -4 55 0 58 -7 55 -111 l-3 -94 -88 -3 -87 -3 -25 -49 c-14
-28 -29 -50 -33 -50 -4 0 -18 23 -29 50 l-21 50 -91 0 -91 0 0 70 0 70 30 0
c31 0 41 -16 15 -26 -10 -4 -15 -20 -15 -45 l0 -39 70 0 70 0 -25 57 c-14 31
-23 63 -20 70 2 8 1 11 -4 8 -5 -3 -12 -1 -16 5 -3 5 2 10 13 10 14 0 26 -17
46 -64 15 -36 25 -69 22 -74 -2 -4 14 -9 38 -11 l43 -2 28 63 c15 35 29 69 32
76 3 8 -4 12 -21 12 -19 0 -26 -5 -26 -20 0 -11 -7 -20 -15 -20 -10 0 -15 11
-15 35 l0 35 48 0 48 0 26 63 26 62 -161 3 c-88 1 -161 1 -163 -1 -2 -2 8 -31
23 -65 24 -58 29 -62 58 -62 25 0 34 5 38 21 3 12 10 18 16 14 13 -7 15 -65 3
-65 -5 0 -8 12 -7 28 1 15 0 19 -2 10 -4 -16 -17 -18 -103 -18 l-98 0 9 43
c14 62 19 69 13 15 l-6 -48 36 0 36 0 -16 38 c-9 20 -18 46 -21 57 -4 16 -3
17 6 5 12 -17 14 -10 5 14 -6 15 -8 15 -20 -1 -12 -17 -13 -16 -14 5 l0 22
202 -2 203 -3 11 -52z m33 -55 c1 -10 -2 -18 -6 -18 -5 0 -9 19 -9 43 -2 34 0
37 6 17 4 -14 8 -33 9 -42z m-482 -18 c-1 -22 -5 -40 -9 -40 -10 0 -10 8 -2
49 9 43 14 39 11 -9z"/>
<path d="M725 759 c-4 -6 -5 -12 -2 -15 2 -3 7 2 10 11 7 17 1 20 -8 4z"/>
<path d="M290 725 c0 -5 5 -17 10 -25 5 -8 10 -10 10 -5 0 6 -5 17 -10 25 -5
8 -10 11 -10 5z"/>
<path d="M666 625 c-9 -26 -7 -32 5 -12 6 10 9 21 6 23 -2 3 -7 -2 -11 -11z"/>
<path d="M350 585 c0 -5 5 -17 10 -25 5 -8 10 -10 10 -5 0 6 -5 17 -10 25 -5
8 -10 11 -10 5z"/>
<path d="M636 555 c-9 -26 -7 -32 5 -12 6 10 9 21 6 23 -2 3 -7 -2 -11 -11z"/>
<path d="M531 493 c0 -27 1 -27 9 -5 9 22 14 23 92 20 l83 -3 3 -82 3 -83
-216 0 -215 0 0 49 c0 39 4 51 18 54 13 4 11 5 -5 6 -21 1 -23 -3 -23 -59 l0
-60 225 0 226 0 -3 93 -3 92 -97 3 -98 3 1 -28z"/>
<path d="M636 493 c-4 -4 -13 -8 -18 -8 -6 0 -13 -7 -15 -15 -4 -13 -3 -13 6
0 19 26 12 -6 -14 -64 l-25 -56 71 0 70 0 -3 73 -3 72 -30 3 c-17 2 -34 -1
-39 -5z"/>
<path d="M420 425 c0 -5 5 -17 10 -25 5 -8 10 -10 10 -5 0 6 -5 17 -10 25 -5
8 -10 11 -10 5z"/>
<path d="M576 415 c-9 -26 -7 -32 5 -12 6 10 9 21 6 23 -2 3 -7 -2 -11 -11z"/>
<path d="M494 304 c3 -9 6 -19 6 -22 0 -9 20 21 20 31 0 4 -7 7 -16 7 -11 0
-14 -5 -10 -16z"/>
<path d="M481 285 c0 -5 5 -20 12 -33 l13 -23 13 27 c6 15 10 29 7 31 -2 2 -7
-6 -11 -18 l-7 -22 -14 24 c-7 13 -13 20 -13 14z"/>
</g>
</svg>
